<svg xmlns="http://www.w3.org/2000/svg" width="50" height="50" viewBox="0 0 50 50" fill="none"><rect x="0.5" y="0.5" width="49" height="49" rx="23.5" fill="white" fill-opacity="0.1"></rect><rect x="0.5" y="0.5" width="49" height="49" rx="23.5" stroke="#FFE7AB"></rect><path d="M30.75 13.5H19.25C16.0744 13.5 13.5 16.0744 13.5 19.25V30.75C13.5 33.9256 16.0744 36.5 19.25 36.5H30.75C33.9256 36.5 36.5 33.9256 36.5 30.75V19.25C36.5 16.0744 33.9256 13.5 30.75 13.5Z" stroke="#FFE7AB" stroke-linecap="round" stroke-linejoin="round"></path><path d="M29.4513 24.3399C29.5902 25.2762 29.4302 26.2324 28.9943 27.0726C28.5584 27.9127 27.8686 28.594 27.0232 29.0196C26.1777 29.4451 25.2196 29.5932 24.2851 29.4429C23.3506 29.2925 22.4873 28.8513 21.818 28.182C21.1487 27.5127 20.7075 26.6494 20.5572 25.7149C20.4068 24.7804 20.5549 23.8223 20.9804 22.9768C21.406 22.1314 22.0873 21.4416 22.9274 21.0057C23.7676 20.5698 24.7238 20.4098 25.6601 20.5487C26.6151 20.6903 27.4993 21.1353 28.182 21.818C28.8647 22.5007 29.3097 23.3849 29.4513 24.3399Z" stroke="#FFE7AB" stroke-linecap="round" stroke-linejoin="round"></path><path d="M31.5 18.5H31.5109" stroke="#FFE7AB" stroke-width="1.13578" stroke-linecap="round" stroke-linejoin="round"></path></svg>