<svg xmlns="http://www.w3.org/2000/svg" width="1328" height="406" viewBox="0 0 1328 406" fill="none"><path d="M25.2423 387.151C25.4001 386.992 25.4001 386.992 25.5578 386.833C28.7125 383.974 30.6053 380.002 30.6053 375.713L32.4981 313.438C32.8136 305.019 34.5487 296.758 37.7034 289.132L59.6285 235.754C61.2059 231.942 61.2059 227.494 59.1553 223.999C59.1553 223.84 58.9976 223.84 58.9976 223.681C53.4769 213.99 39.123 215.102 34.5487 225.27L7.57607 285.002C3.79043 293.422 1.73988 302.636 1.42441 311.85L0.00480135 374.283C-0.310668 387.469 14.9896 395.571 25.2423 387.151Z" fill="#FFE7AB"></path><path d="M153.926 247.797C106.644 264.517 82.6907 293.135 82.6907 293.135L112.75 313.553C121.048 319.18 128.406 326.414 133.886 335.096C144.219 351.495 147.663 369.019 147.976 370.144C148.446 373.038 148.446 375.932 147.976 378.826C146.567 385.9 142.184 389.597 137.017 390.401C129.502 391.687 122.3 386.221 120.735 378.504C116.508 357.925 103.044 342.652 91.6147 333.006C83.317 326.093 73.6103 321.27 63.2773 318.536C43.5508 313.231 38.5408 302.62 48.091 286.704C50.4394 282.845 53.2575 279.469 56.5452 276.254C78.7767 254.389 109.932 235.739 144.219 218.537C145.158 218.055 146.098 217.572 147.193 217.411C154.239 215.804 159.875 219.019 162.849 224.003C167.859 233.006 163.319 244.421 153.926 247.797Z" fill="#FFE7AB"></path><path d="M308.914 239.873C306.309 235.107 302.785 231.454 298.495 229.071C291.753 225.259 283.632 224.782 276.278 227.006C215.295 245.909 187.409 278.949 187.409 278.949C142.821 256.234 124.741 294.357 157.684 302.776L141.289 319.931C138.072 323.267 138.072 328.826 141.289 332.162L147.878 338.993C150.942 342.169 155.999 342.487 159.369 339.469L195.376 307.223C229.698 314.848 257.738 331.844 275.052 365.361C276.584 368.379 278.576 371.397 280.874 373.939C291.293 384.74 301.712 384.899 307.075 372.35C309.067 367.585 309.527 362.184 308.914 356.942C304.47 323.108 305.543 291.339 311.825 261.317C313.204 254.01 312.438 246.385 308.914 239.873ZM275.818 321.043C258.504 299.281 220.658 284.667 220.658 284.667C270.302 247.656 285.777 254.963 285.777 254.963C276.278 282.443 275.818 321.043 275.818 321.043Z" fill="white"></path><path d="M349.969 233.564C337.73 278.984 323.743 325.356 332.644 359.977C335.982 372.84 346.473 382.687 359.348 385.863C390.661 393.644 423.882 393.486 461.712 372.523C465.845 370.141 468.706 365.853 468.706 361.088C468.706 354.895 466.957 350.448 462.984 347.748C458.851 344.89 453.447 345.049 449.155 347.431C424.676 361.247 399.88 365.853 374.289 360.294C366.977 358.706 361.573 352.513 361.414 345.049C360.46 310.905 366.5 277.396 378.899 244.522C380.17 241.187 379.693 237.534 377.786 234.517C372.858 227.371 364.434 224.512 357.758 226.1C353.943 226.894 350.923 229.912 349.969 233.564Z" fill="#FFE7AB"></path><path d="M509.398 243.422C502 261.458 480.612 317.916 487.366 366.22C488.331 373.12 492.995 379.237 499.749 381.275C506.503 383.314 513.258 380.648 517.439 370.14C518.404 367.945 518.725 365.436 518.564 363.083C516.956 323.092 524.032 287.021 537.058 253.773C538.988 249.068 538.345 243.579 535.129 239.658C532.234 236.051 527.57 233.229 519.851 234.797C515.187 235.738 511.328 239.031 509.398 243.422Z" fill="#FFF3D1"></path><path d="M547.971 359.077C577.416 287.646 614.641 240.389 660.256 218.71C662.545 217.618 665.138 216.994 667.732 216.994C675.36 216.994 680.852 219.49 684.666 224.324C688.328 229.159 689.09 235.71 687.26 241.48C682.225 257.389 669.868 299.967 672.614 320.554L742.639 247.875C748.437 241.948 756.98 239.141 764.761 241.636C771.778 243.82 776.965 248.967 779.712 258.169C780.932 262.536 781.39 267.059 781.085 271.737L775.287 368.591C774.982 373.27 772.541 377.793 768.575 380.132C768.422 380.132 768.422 380.288 768.269 380.288C759.116 385.279 747.979 378.105 747.826 367.499L746.453 281.875C726.468 306.05 704.499 326.949 680.852 345.196C669.563 353.93 653.239 352.371 644.543 340.985C640.881 336.151 639.355 330.692 639.508 324.297C639.661 322.114 639.966 319.93 640.423 317.747L654.306 252.554C620.896 281.407 595.113 320.71 575.432 368.279C573.144 373.894 567.957 377.949 562.16 378.261C554.379 378.729 547.361 373.894 546.903 365.94C546.598 363.444 547.209 361.105 547.971 359.077Z" fill="#FFF3D1"></path><path d="M902.791 226.326C911.429 228.744 913.785 233.902 912.215 240.511C910.644 246.798 905.932 251.795 899.964 254.052C832.743 281.133 834.157 330.297 871.851 350.447C880.018 354.799 889.598 355.605 898.551 353.026C910.016 349.641 927.135 343.515 940.171 334.005C941.585 333.038 942.998 332.232 944.726 331.748C953.521 329.33 960.746 332.715 962.945 340.13C964.672 346.256 961.845 352.703 956.505 356.25C900.121 392.68 850.805 389.456 826.932 352.059C812.325 329.169 812.482 299.509 825.832 275.813C840.282 250.022 861.642 232.774 893.839 226.004C896.823 225.52 899.807 225.52 902.791 226.326Z" fill="white"></path><path d="M791.213 374.725C788.88 369.883 789.658 364.102 792.768 359.728C823.248 317.549 904.582 270.527 967.72 249.749C1040.81 222.254 1112.81 210.382 1131.16 257.873C1133.19 263.184 1133.96 268.808 1132.56 274.276C1128.52 290.835 1109.7 300.052 1089.33 308.488C1089.33 308.488 1110.95 320.986 1125.1 335.358C1127.74 338.014 1130.39 340.669 1133.34 343.013L1140.96 349.73C1147.18 355.198 1147.34 364.884 1141.27 370.507C1135.83 375.663 1127.43 375.663 1121.99 370.507L1109.7 358.635C1097.57 347.074 1083.58 337.389 1068.34 330.359L1048.9 321.298C1043.3 318.642 1040.19 312.706 1040.97 306.613C1041.59 301.771 1044.85 297.553 1049.36 295.678L1095.24 275.994C1098.51 274.588 1101.31 271.776 1101.93 268.183C1105.82 248.968 1049.21 248.968 1013.6 263.028C932.574 289.742 854.04 326.453 814.851 375.975C811.274 380.506 805.209 383.005 799.611 381.443C795.878 380.506 792.923 378.162 791.213 374.725Z" fill="#FFF3D1"></path><path d="M993.068 266.092C997.381 260.774 1001.84 259.366 1007.5 261.087C1013.59 262.964 1017.61 269.376 1018.65 275.945L1032.63 354.93C1034.27 364.158 1027.87 373.073 1019.1 373.229C1018.06 373.229 1017.01 373.229 1015.97 372.916C1009.58 371.665 1004.97 365.722 1004.52 358.84C1002.74 332.877 997.827 308.477 990.688 285.173C988.754 278.761 988.903 271.097 993.068 266.092Z" fill="white"></path><path d="M1300.17 269.388C1291.32 205.891 1234.18 221.765 1194.74 253.037L1159.5 238.274C1155.31 236.528 1150.34 237.957 1147.7 241.608L1144.44 246.053C1140.87 250.974 1142.26 257.958 1147.39 260.974L1168.66 273.674C1149.41 285.579 1135.9 305.105 1130.15 314.47C1127.67 318.439 1127.82 323.36 1130.31 327.17C1136.05 336.059 1146.15 337.329 1152.98 328.916C1157.79 322.884 1162.6 317.01 1168.19 311.931L1195.36 287.325C1223.78 312.248 1248.78 341.139 1269.27 375.586C1272.69 381.301 1279.83 383.523 1285.73 380.666L1288.21 379.396C1291.94 377.65 1294.58 374.157 1295.36 369.871C1301.26 335.583 1304.05 301.771 1300.17 269.388ZM1269.43 323.36C1259.33 307.009 1220.05 270.34 1220.05 270.34C1239.15 257.323 1254.68 255.101 1260.89 254.783C1262.75 254.625 1264.61 255.577 1265.7 257.165C1280.76 279.388 1269.43 323.36 1269.43 323.36Z" fill="#FFE7AB"></path><path d="M573.881 242.532C578.482 251.088 589.589 275.667 586.257 307.87C585.781 312.381 588.002 316.893 591.969 319.071C597.205 322.026 605.138 323.271 613.706 312.692C615.452 310.514 616.404 307.87 616.245 305.07C615.769 291.224 612.913 244.554 597.522 228.375C595.618 226.353 592.762 225.419 590.065 225.731C585.464 226.197 578.165 228.064 574.357 233.82C572.453 236.465 572.453 239.887 573.881 242.532Z" fill="#FCC100"></path><path d="M521.3 17.8903L534.988 74.2391C537.149 83.161 545.65 88.7958 553.718 86.1349C557.176 85.0393 560.49 82.3783 562.796 77.0565C564.236 73.7695 564.525 70.1694 563.804 66.7259C559.05 43.4038 553.142 24.4643 546.226 8.65534C544.497 4.5857 541.183 1.61174 537.149 0.516069C533.403 -0.423078 528.648 -0.423078 524.758 3.49003C521.156 7.24662 520.003 12.8815 521.3 17.8903Z" fill="#FCC100"></path><path d="M411.782 89.6926C408.36 92.5723 407.427 96.3614 408.205 101.06C408.982 105.455 412.093 109.093 416.291 111.063L476.161 137.739C479.583 139.254 483.47 139.254 486.736 137.739C491.09 135.768 494.045 133.04 494.667 128.645C495.289 123.491 492.179 118.49 487.358 116.368L426.555 88.3285C421.578 85.9034 415.825 86.3581 411.782 89.6926Z" fill="#FCC100"></path><path d="M425.677 251.519C426.627 255.521 429.159 258.337 433.907 259.82C437.388 260.857 441.028 260.413 444.351 259.079C454.796 254.632 483.44 241.736 506.071 223.948C510.977 220.094 513.351 213.868 511.451 208.236C509.869 203.196 505.596 200.676 499.582 199.787C495.468 199.194 491.353 200.38 487.871 202.603C477.427 209.718 450.523 227.654 433.907 235.51C427.735 238.623 424.095 245.145 425.677 251.519Z" fill="#FCC100"></path><path d="M637.223 112.823C627.145 113.141 624.381 107.73 625.031 99.7731C625.356 95.317 627.307 91.02 630.396 87.678C640.8 76.5378 668.923 49.1647 697.047 43.5946C703.062 42.6397 708.589 45.186 710.865 50.9153C713.466 57.5994 710.052 65.0793 703.387 68.2622L690.382 74.4689C684.204 77.3335 678.677 81.153 673.638 85.7682L656.894 101.046C655.268 102.479 653.805 104.07 652.342 105.661C648.44 109.958 643.076 112.664 637.223 112.823Z" fill="#FCC100"></path><path d="M642.301 177.222C642.301 173.968 643.972 170.856 647.01 168.027C649.288 165.904 652.326 164.914 655.516 164.914C667.668 165.056 701.39 166.612 722.2 177.081C729.947 180.901 731.466 190.662 725.238 196.321C725.086 196.463 725.086 196.463 724.934 196.604C721.441 199.575 716.428 200.424 712.023 198.868C699.871 194.765 672.225 186.418 655.364 187.833C648.529 188.54 642.301 183.589 642.301 177.222Z" fill="#FCC100"></path><path d="M614.458 132.556C618.612 130.258 621.009 127.041 621.169 122.752C621.328 119.228 619.731 115.705 617.334 112.948C594.326 87.9775 560.294 92.1136 535.209 110.65C513.639 126.582 505.65 154.769 517.793 178.054C521.788 185.56 527.38 191.994 534.889 196.896C569.88 218.956 622.127 210.684 633.312 157.679C634.43 152.318 632.513 146.496 627.72 143.433C621.968 139.603 613.819 140.369 608.067 145.884C605.99 147.875 604.712 150.633 604.392 153.39C601.197 173.765 585.539 182.343 569.721 181.118C542.239 179.126 531.534 146.803 552.944 129.952C565.247 120.301 582.663 119.994 597.202 131.024C602.155 134.701 609.026 135.467 614.458 132.556Z" fill="#FCC100"></path></svg>