<svg xmlns="http://www.w3.org/2000/svg" width="512" height="512" viewBox="0 0 512 512" fill="none">
  <rect width="512" height="512" rx="32" fill="#1e40af"/>
  <path d="M261.391 338.474C266.022 347.084 277.198 371.818 273.845 404.223C273.366 408.763 275.602 413.303 279.593 415.495C284.862 418.469 292.845 419.721 301.467 409.076C303.224 406.885 304.182 404.223 304.022 401.406C303.543 387.473 300.669 340.509 285.182 324.228C283.266 322.193 280.392 321.254 277.677 321.567C273.047 322.036 265.702 323.915 261.87 329.707C259.955 332.369 259.954 335.813 261.391 338.474Z" fill="#FCC100"/>
  <path d="M208.479 112.416L222.253 169.12C224.428 178.098 232.982 183.768 241.102 181.091C244.581 179.988 247.916 177.31 250.236 171.955C251.686 168.647 251.976 165.024 251.251 161.559C246.466 138.09 240.522 119.031 233.562 103.123C231.822 99.0277 228.488 96.035 224.428 94.9324C220.658 93.9873 215.874 93.9873 211.959 97.9251C208.334 101.705 207.174 107.376 208.479 112.416Z" fill="#FCC100"/>
  <path d="M98.2705 184.672C94.8278 187.57 93.8888 191.383 94.6713 196.111C95.4537 200.534 98.5835 204.195 102.809 206.178L163.056 233.021C166.499 234.546 170.411 234.546 173.697 233.021C178.078 231.038 181.052 228.293 181.678 223.87C182.304 218.684 179.174 213.651 174.323 211.516L113.137 183.3C108.129 180.859 102.339 181.317 98.2705 184.672Z" fill="#FCC100"/>
  <path d="M112.253 347.516C113.208 351.543 115.756 354.377 120.534 355.869C124.037 356.913 127.7 356.466 131.044 355.123C141.555 350.648 170.38 337.671 193.153 319.772C198.089 315.893 200.478 309.628 198.567 303.96C196.975 298.889 192.675 296.353 186.623 295.458C182.483 294.861 178.342 296.055 174.839 298.292C164.328 305.452 137.255 323.501 120.534 331.406C114.323 334.539 110.66 341.102 112.253 347.516Z" fill="#FCC100"/>
  <path d="M325.132 207.947C314.989 208.267 312.208 202.822 312.863 194.815C313.19 190.33 315.153 186.006 318.261 182.643C328.731 171.433 357.032 143.888 385.332 138.282C391.385 137.321 396.947 139.884 399.237 145.649C401.855 152.375 398.419 159.902 391.712 163.105L378.625 169.351C372.409 172.234 366.847 176.077 361.776 180.722L344.926 196.096C343.29 197.537 341.818 199.139 340.346 200.74C336.419 205.064 331.021 207.787 325.132 207.947Z" fill="#FCC100"/>
  <path d="M330.243 272.753C330.243 269.478 331.925 266.346 334.982 263.499C337.275 261.364 340.332 260.367 343.542 260.367C355.77 260.509 389.704 262.075 410.646 272.61C418.441 276.454 419.97 286.277 413.703 291.972C413.55 292.114 413.55 292.114 413.397 292.257C409.881 295.246 404.837 296.101 400.404 294.535C388.176 290.406 360.356 282.007 343.389 283.43C336.51 284.142 330.243 279.159 330.243 272.753Z" fill="#FCC100"/>
  <path d="M302.225 227.804C306.405 225.491 308.817 222.254 308.978 217.938C309.138 214.392 307.531 210.847 305.119 208.072C281.966 182.944 247.719 187.107 222.476 205.759C200.771 221.792 192.732 250.156 204.951 273.588C208.971 281.142 214.598 287.616 222.155 292.549C257.366 314.748 309.942 306.423 321.197 253.085C322.323 247.69 320.393 241.832 315.57 238.749C309.782 234.895 301.582 235.666 295.794 241.215C293.703 243.219 292.417 245.994 292.095 248.769C288.88 269.272 273.123 277.904 257.206 276.671C229.551 274.667 218.778 242.14 240.323 225.183C252.704 215.471 270.229 215.163 284.86 226.262C289.845 229.962 296.758 230.733 302.225 227.804Z" fill="#FCC100"/>
</svg>
