<svg xmlns="http://www.w3.org/2000/svg" width="154" height="76" viewBox="0 0 154 76" fill="none"><g clip-path="url(#clip0_3020_613)"><path d="M3.40819 45.1039C3.42637 45.0856 3.42637 45.0856 3.44454 45.0673C3.80799 44.7379 4.02607 44.2803 4.02607 43.7861L4.24414 36.6114C4.28048 35.6414 4.48038 34.6896 4.84384 33.8111L7.36985 27.6614C7.55158 27.2221 7.55158 26.7097 7.31533 26.307C7.31533 26.2887 7.29716 26.2887 7.29716 26.2704C6.66111 25.1539 5.00739 25.282 4.48038 26.4534L1.37284 33.3352C0.936699 34.3053 0.700453 35.3668 0.664108 36.4284L0.500553 43.6214C0.464208 45.1405 2.22696 46.074 3.40819 45.1039Z" fill="#FFE7AB"></path><path d="M18.2339 29.0488C12.7866 30.9752 10.0269 34.2722 10.0269 34.2722L13.4901 36.6246C14.4461 37.2729 15.2938 38.1064 15.9251 39.1066C17.1156 40.9959 17.5124 43.0149 17.5485 43.1445C17.6026 43.4779 17.6026 43.8113 17.5485 44.1447C17.3862 44.9597 16.8811 45.3857 16.2859 45.4784C15.4201 45.6265 14.5904 44.9968 14.41 44.1077C13.923 41.7368 12.3718 39.9772 11.055 38.8658C10.099 38.0693 8.98073 37.5137 7.79026 37.1988C5.51755 36.5875 4.94035 35.365 6.04063 33.5313C6.31119 33.0868 6.63587 32.6978 7.01465 32.3273C9.57596 29.8083 13.1654 27.6597 17.1156 25.6777C17.2238 25.6222 17.332 25.5666 17.4583 25.5481C18.27 25.3629 18.9193 25.7333 19.2621 26.3075C19.8392 27.3448 19.3162 28.6599 18.2339 29.0488Z" fill="#FFE7AB"></path><path d="M36.0902 28.1358C35.7901 27.5868 35.3841 27.1659 34.8898 26.8914C34.1131 26.4522 33.1775 26.3973 32.3301 26.6535C25.3043 28.8313 22.0915 32.6378 22.0915 32.6378C16.9546 30.0208 14.8715 34.413 18.6669 35.383L16.778 37.3595C16.4073 37.7438 16.4073 38.3843 16.778 38.7686L17.5371 39.5555C17.8902 39.9216 18.4727 39.9582 18.8611 39.6105L23.0095 35.8954C26.9637 36.7738 30.1942 38.732 32.1889 42.5935C32.3655 42.9412 32.5949 43.2889 32.8597 43.5817C34.0601 44.8262 35.2605 44.8445 35.8784 43.3987C36.1078 42.8497 36.1608 42.2275 36.0902 41.6235C35.5783 37.7255 35.7018 34.0653 36.4256 30.6065C36.5845 29.7646 36.4962 28.8862 36.0902 28.1358ZM32.2772 37.4876C30.2824 34.9803 25.9222 33.2967 25.9222 33.2967C31.6417 29.0326 33.4246 29.8744 33.4246 29.8744C32.3301 33.0405 32.2772 37.4876 32.2772 37.4876Z" fill="white"></path><path d="M40.8203 27.4091C39.4102 32.6419 37.7986 37.9845 38.8242 41.9731C39.2087 43.4552 40.4174 44.5896 41.9007 44.9555C45.5084 45.852 49.3358 45.8337 53.6942 43.4186C54.1704 43.1441 54.5 42.6501 54.5 42.1012C54.5 41.3877 54.2986 40.8754 53.8407 40.5643C53.3646 40.235 52.742 40.2533 52.2475 40.5277C49.4273 42.1195 46.5705 42.6501 43.6221 42.0097C42.7798 41.8268 42.1571 41.1132 42.1388 40.2533C42.0289 36.3195 42.7248 32.4589 44.1532 28.6715C44.2997 28.2873 44.2448 27.8665 44.025 27.5188C43.4573 26.6955 42.4867 26.3661 41.7176 26.5491C41.2781 26.6406 40.9302 26.9882 40.8203 27.4091Z" fill="#FFE7AB"></path><path d="M59.1882 28.5448C58.3359 30.6227 55.8717 37.1273 56.6498 42.6924C56.761 43.4874 57.2983 44.1921 58.0765 44.427C58.8547 44.6619 59.6328 44.3547 60.1145 43.1441C60.2257 42.8912 60.2628 42.6021 60.2442 42.3311C60.059 37.7236 60.8742 33.5679 62.3749 29.7373C62.5973 29.1953 62.5232 28.5629 62.1526 28.1112C61.8191 27.6956 61.2818 27.3704 60.3925 27.5511C59.8552 27.6595 59.4105 28.0389 59.1882 28.5448Z" fill="#FFF3D1"></path><path d="M63.6323 41.8695C67.0246 33.6398 71.3133 28.1953 76.5687 25.6977C76.8324 25.5719 77.1312 25.5 77.43 25.5C78.3088 25.5 78.9416 25.7875 79.381 26.3445C79.8028 26.9016 79.8907 27.6562 79.6798 28.3211C79.0998 30.1539 77.6761 35.0594 77.9924 37.4312L86.0601 29.0578C86.728 28.375 87.7123 28.0516 88.6087 28.3391C89.4173 28.5906 90.0149 29.1836 90.3313 30.2437C90.4719 30.7469 90.5246 31.268 90.4895 31.807L89.8215 42.9656C89.7864 43.5047 89.5052 44.0258 89.0482 44.2953C89.0306 44.2953 89.0306 44.3133 89.013 44.3133C87.9584 44.8883 86.6753 44.0617 86.6577 42.8398L86.4995 32.975C84.197 35.7601 81.666 38.168 78.9416 40.2703C77.6409 41.2765 75.7602 41.0969 74.7583 39.7851C74.3365 39.2281 74.1607 38.5992 74.1783 37.8625C74.1959 37.6109 74.231 37.3594 74.2837 37.1078L75.8832 29.5969C72.0339 32.9211 69.0635 37.4492 66.7961 42.9297C66.5324 43.5765 65.9348 44.0437 65.2669 44.0797C64.3705 44.1336 63.562 43.5765 63.5092 42.6601C63.4741 42.3726 63.5444 42.1031 63.6323 41.8695Z" fill="#FFF3D1"></path><path d="M104.511 26.5752C105.507 26.8537 105.778 27.448 105.597 28.2095C105.416 28.9337 104.873 29.5095 104.186 29.7695C96.441 32.8895 96.6039 38.5537 100.947 40.8752C101.888 41.3766 102.991 41.4695 104.023 41.1723C105.344 40.7823 107.316 40.0766 108.818 38.9809C108.981 38.8695 109.144 38.7766 109.343 38.7209C110.356 38.4423 111.188 38.8323 111.442 39.6866C111.641 40.3923 111.315 41.1352 110.7 41.5437C104.204 45.7409 98.5219 45.3695 95.7715 41.0609C94.0887 38.4237 94.1068 35.0066 95.6448 32.2766C97.3096 29.3052 99.7705 27.318 103.48 26.538C103.824 26.4823 104.168 26.4823 104.511 26.5752Z" fill="white"></path><path d="M91.6563 43.6724C91.3875 43.1144 91.4771 42.4485 91.8354 41.9445C95.3471 37.085 104.718 31.6675 111.992 29.2737C120.413 26.1061 128.708 24.7382 130.822 30.2097C131.055 30.8216 131.145 31.4695 130.984 32.0995C130.518 34.0073 128.35 35.0692 126.003 36.0411C126.003 36.0411 128.493 37.481 130.124 39.1368C130.428 39.4428 130.733 39.7487 131.073 40.0187L131.951 40.7926C132.668 41.4226 132.686 42.5385 131.987 43.1864C131.36 43.7803 130.392 43.7803 129.765 43.1864L128.35 41.8185C126.952 40.4867 125.34 39.3708 123.584 38.5609L121.344 37.517C120.699 37.211 120.341 36.5271 120.431 35.8251C120.502 35.2672 120.879 34.7812 121.398 34.5652L126.684 32.2975C127.06 32.1355 127.382 31.8115 127.454 31.3975C127.902 29.1838 121.38 29.1838 117.277 30.8036C107.943 33.8813 98.8946 38.1109 94.3796 43.8163C93.9675 44.3383 93.2688 44.6263 92.6238 44.4463C92.1938 44.3383 91.8533 44.0683 91.6563 43.6724Z" fill="#FFF3D1"></path><path d="M114.912 31.1566C115.409 30.5439 115.923 30.3818 116.574 30.58C117.277 30.7962 117.74 31.535 117.86 32.2918L119.47 41.3917C119.659 42.4549 118.922 43.482 117.911 43.5C117.791 43.5 117.671 43.5 117.551 43.464C116.814 43.3198 116.283 42.6351 116.232 41.8422C116.026 38.851 115.461 36.0399 114.638 33.355C114.415 32.6162 114.432 31.7332 114.912 31.1566Z" fill="white"></path><path d="M150.293 31.5363C149.274 24.2208 142.691 26.0497 138.147 29.6526L134.087 27.9517C133.604 27.7505 133.031 27.9151 132.727 28.3358L132.352 28.8479C131.94 29.4148 132.101 30.2195 132.692 30.567L135.142 32.0301C132.924 33.4018 131.368 35.6513 130.706 36.7303C130.42 37.1875 130.438 37.7545 130.724 38.1934C131.386 39.2176 132.548 39.3639 133.335 38.3946C133.89 37.6996 134.445 37.0229 135.089 36.4377L138.219 33.6029C141.492 36.4743 144.373 39.8028 146.734 43.7715C147.127 44.4299 147.95 44.686 148.63 44.3568L148.916 44.2104C149.345 44.0093 149.65 43.6069 149.739 43.1131C150.419 39.1627 150.741 35.2672 150.293 31.5363ZM146.752 37.7545C145.589 35.8708 141.063 31.646 141.063 31.646C143.263 30.1464 145.052 29.8903 145.768 29.8537C145.982 29.8354 146.197 29.9452 146.322 30.1281C148.057 32.6885 146.752 37.7545 146.752 37.7545Z" fill="#FFE7AB"></path><path d="M66.6173 28.4424C67.1474 29.4282 68.427 32.26 68.0431 35.9701C67.9883 36.4898 68.2442 37.0096 68.7012 37.2605C69.3044 37.6011 70.2184 37.7445 71.2055 36.5257C71.4066 36.2748 71.5163 35.9701 71.498 35.6475C71.4432 34.0523 71.1142 28.6754 69.341 26.8114C69.1216 26.5784 68.7926 26.4709 68.4818 26.5068C67.9517 26.5605 67.1108 26.7756 66.6721 27.4388C66.4528 27.7434 66.4528 28.1377 66.6173 28.4424Z" fill="#FCC100"></path><path d="M60.5593 2.56115L62.1363 9.05315C62.3853 10.081 63.3647 10.7302 64.2943 10.4237C64.6927 10.2974 65.0745 9.99088 65.3401 9.37775C65.5061 8.99905 65.5393 8.58428 65.4563 8.18755C64.9085 5.50058 64.2279 3.31855 63.4311 1.49719C63.2319 1.02832 62.8501 0.68569 62.3853 0.559457C61.9537 0.451257 61.4059 0.451257 60.9577 0.90209C60.5427 1.33489 60.4099 1.98409 60.5593 2.56115Z" fill="#FCC100"></path><path d="M47.9416 10.8336C47.5475 11.1654 47.44 11.6019 47.5296 12.1433C47.6191 12.6497 47.9775 13.0687 48.4612 13.2957L55.3589 16.369C55.753 16.5437 56.2009 16.5437 56.5772 16.369C57.0788 16.142 57.4192 15.8277 57.4909 15.3213C57.5626 14.7276 57.2042 14.1514 56.6488 13.9069L49.6437 10.6765C49.0703 10.3971 48.4075 10.4495 47.9416 10.8336Z" fill="#FCC100"></path><path d="M49.5426 29.4776C49.652 29.9387 49.9437 30.2632 50.4907 30.434C50.8918 30.5535 51.3112 30.5023 51.694 30.3486C52.8974 29.8362 56.1975 28.3505 58.8048 26.3012C59.37 25.8571 59.6435 25.1399 59.4247 24.4909C59.2424 23.9103 58.7501 23.62 58.0573 23.5175C57.5832 23.4492 57.1091 23.5858 56.708 23.842C55.5047 24.6617 52.4051 26.7281 50.4907 27.6332C49.7796 27.9918 49.3603 28.7433 49.5426 29.4776Z" fill="#FCC100"></path><path d="M73.915 13.4985C72.7538 13.5351 72.4354 12.9117 72.5103 11.995C72.5478 11.4816 72.7725 10.9865 73.1284 10.6015C74.3271 9.31801 77.5672 6.16433 80.8073 5.5226C81.5003 5.41258 82.1371 5.70595 82.3993 6.36602C82.699 7.13611 82.3057 7.99787 81.5378 8.36457L80.0395 9.07965C79.3277 9.40969 78.691 9.84973 78.1104 10.3815L76.1812 12.1416C75.994 12.3067 75.8254 12.49 75.6568 12.6734C75.2073 13.1684 74.5893 13.4801 73.915 13.4985Z" fill="#FCC100"></path><path d="M74.5 20.918C74.5 20.5432 74.6925 20.1846 75.0425 19.8586C75.305 19.6141 75.655 19.5 76.0225 19.5C77.4226 19.5163 81.3077 19.6956 83.7053 20.9017C84.5978 21.3418 84.7728 22.4665 84.0553 23.1185C84.0378 23.1348 84.0378 23.1348 84.0203 23.1511C83.6178 23.4934 83.0402 23.5911 82.5327 23.4119C81.1327 22.9392 77.9476 21.9775 76.005 22.1405C75.2175 22.222 74.5 21.6515 74.5 20.918Z" fill="#FCC100"></path><path d="M71.2921 15.772C71.7707 15.5072 72.0469 15.1366 72.0653 14.6424C72.0837 14.2365 71.8996 13.8305 71.6235 13.5129C68.9727 10.636 65.0518 11.1126 62.1618 13.2481C59.6767 15.0836 58.7563 18.3311 60.1553 21.0138C60.6155 21.8786 61.2598 22.6199 62.1249 23.1847C66.1563 25.7262 72.1757 24.7731 73.4643 18.6664C73.5931 18.0487 73.3722 17.378 72.82 17.0251C72.1573 16.5838 71.2185 16.6721 70.5558 17.3075C70.3165 17.5369 70.1692 17.8546 70.1324 18.1723C69.7643 20.5196 67.9603 21.508 66.1379 21.3668C62.9717 21.1373 61.7384 17.4133 64.205 15.4719C65.6225 14.36 67.6289 14.3247 69.3041 15.5955C69.8747 16.0191 70.6663 16.1073 71.2921 15.772Z" fill="#FCC100"></path><path d="M0.578125 64.668C0.578125 63.8789 0.897135 63.1849 1.53516 62.5859C2.17318 61.9844 2.99089 61.6836 3.98828 61.6836C4.73047 61.6836 5.35286 61.8125 5.85547 62.0703C6.36068 62.3255 6.82682 62.7031 7.25391 63.2031L6.13281 64.1328C5.84896 63.7812 5.53646 63.5247 5.19531 63.3633C4.85417 63.1992 4.45182 63.1172 3.98828 63.1172C3.42318 63.1172 2.96745 63.263 2.62109 63.5547C2.27474 63.8438 2.10156 64.2148 2.10156 64.668C2.10156 65.0951 2.26172 65.4518 2.58203 65.7383C2.90495 66.0221 3.3737 66.1641 3.98828 66.1641C4.83724 66.1641 5.54688 65.8385 6.11719 65.1875L7.17188 66.043C6.32812 67.0768 5.26693 67.5951 3.98828 67.5977C3.44922 67.5977 2.95833 67.513 2.51562 67.3438C2.07292 67.1719 1.71354 66.9453 1.4375 66.6641C1.16406 66.3828 0.951823 66.0703 0.800781 65.7266C0.652344 65.3828 0.578125 65.0299 0.578125 64.668ZM12.2969 67.5L11.9141 66.5547H9.13672L8.74609 67.5H7.23438L9.50391 61.9805H11.625L13.9062 67.5H12.2969ZM9.67969 65.2266H11.3672L10.5195 63.1719L9.67969 65.2266ZM15.957 63.3242V64.1484H18.6758L18.5156 65.4922H15.957V67.5H14.5469V61.9805H19.6914V63.3242H15.957ZM21.9023 63.3242V64.1484H24.0625L23.9023 65.4922H21.9023V66.1562H25.5586V67.5H20.4922V61.9805H25.5586V63.3242H21.9023Z" fill="#F9EDC2"></path><circle cx="32.1777" cy="64.5" r="1.5" fill="#F9EDC2"></circle><path d="M44.2451 63.9258C44.2451 64.5456 43.9391 65.0195 43.3271 65.3477L44.1279 67.5H42.6631L42.0068 65.6602H39.9834V67.5H38.5732V61.9805H42.0381C42.3792 61.9805 42.7126 62.0391 43.0381 62.1562C43.3636 62.2734 43.6462 62.4688 43.8857 62.7422C44.1253 63.013 44.2451 63.3372 44.2451 63.7148V63.9258ZM39.9834 63.3242V64.3164H42.167C42.3545 64.3164 42.5133 64.2747 42.6436 64.1914C42.7738 64.1081 42.8389 64 42.8389 63.8672V63.7734C42.8389 63.6406 42.7738 63.5326 42.6436 63.4492C42.5133 63.3659 42.3545 63.3242 42.167 63.3242H39.9834ZM46.5303 63.3242V64.1484H48.6904L48.5303 65.4922H46.5303V66.1562H50.1865V67.5H45.1201V61.9805H50.1865V63.3242H46.5303ZM53.0029 61.8984H54.3389C54.9691 61.8984 55.4652 62.0599 55.8271 62.3828C56.1891 62.7057 56.3923 63.1159 56.4365 63.6133L54.9795 63.707C54.9378 63.5352 54.874 63.4154 54.7881 63.3477C54.7021 63.2773 54.5524 63.2422 54.3389 63.2422H53.0029C52.4118 63.2422 52.1162 63.3893 52.1162 63.6836C52.1162 63.9727 52.4118 64.1172 53.0029 64.1172H54.3389C54.7347 64.1172 55.0798 64.1654 55.374 64.2617C55.6709 64.3555 55.8988 64.4857 56.0576 64.6523C56.2191 64.8164 56.3376 64.9909 56.4131 65.1758C56.4912 65.3607 56.5303 65.5573 56.5303 65.7656C56.5303 66.3203 56.3428 66.7617 55.9678 67.0898C55.5954 67.4154 55.0524 67.5781 54.3389 67.5781H53.0029C51.6045 67.5781 50.8662 67.0104 50.7881 65.875L52.2412 65.7812C52.2777 65.9583 52.3506 66.0781 52.46 66.1406C52.5719 66.2031 52.7529 66.2344 53.0029 66.2344H54.3389C54.6748 66.2344 54.9027 66.207 55.0225 66.1523C55.1423 66.0951 55.2021 65.9896 55.2021 65.8359C55.2021 65.5365 54.9144 65.3867 54.3389 65.3867H53.0029C52.193 65.3867 51.6214 65.2344 51.2881 64.9297C50.9548 64.6224 50.7881 64.2018 50.7881 63.668C50.7881 63.1549 50.9782 62.7318 51.3584 62.3984C51.7412 62.0651 52.2894 61.8984 53.0029 61.8984ZM60.4795 63.3398V67.5H59.0732V63.3398H56.8467L57.0068 61.9805H62.5459L62.7061 63.3398H60.4795ZM67.167 67.5L66.7842 66.5547H64.0068L63.6162 67.5H62.1045L64.374 61.9805H66.4951L68.7764 67.5H67.167ZM64.5498 65.2266H66.2373L65.3896 63.1719L64.5498 65.2266ZM73.2373 61.9805H74.6631V64.4023C74.6631 64.7383 74.6331 65.0521 74.5732 65.3438C74.516 65.6354 74.417 65.9167 74.2764 66.1875C74.1383 66.4557 73.9626 66.6849 73.749 66.875C73.5381 67.0625 73.266 67.2135 72.9326 67.3281C72.5993 67.4427 72.2217 67.5 71.7998 67.5C71.3779 67.5 71.0003 67.4427 70.667 67.3281C70.3337 67.2135 70.0602 67.0625 69.8467 66.875C69.6331 66.6849 69.4574 66.4557 69.3193 66.1875C69.1813 65.9167 69.0824 65.6354 69.0225 65.3438C68.9652 65.0521 68.9365 64.7383 68.9365 64.4023V61.9805H70.3584V64.4297C70.3584 64.6432 70.3766 64.8411 70.4131 65.0234C70.4521 65.2031 70.5199 65.3841 70.6162 65.5664C70.7126 65.7461 70.861 65.8893 71.0615 65.9961C71.2646 66.1029 71.5107 66.1562 71.7998 66.1562C72.0706 66.1562 72.305 66.1029 72.5029 65.9961C72.7008 65.8893 72.8506 65.7474 72.9521 65.5703C73.0537 65.3906 73.1266 65.2057 73.1709 65.0156C73.2152 64.8255 73.2373 64.6302 73.2373 64.4297V61.9805ZM81.3701 63.9258C81.3701 64.5456 81.0641 65.0195 80.4521 65.3477L81.2529 67.5H79.7881L79.1318 65.6602H77.1084V67.5H75.6982V61.9805H79.1631C79.5042 61.9805 79.8376 62.0391 80.1631 62.1562C80.4886 62.2734 80.7712 62.4688 81.0107 62.7422C81.2503 63.013 81.3701 63.3372 81.3701 63.7148V63.9258ZM77.1084 63.3242V64.3164H79.292C79.4795 64.3164 79.6383 64.2747 79.7686 64.1914C79.8988 64.1081 79.9639 64 79.9639 63.8672V63.7734C79.9639 63.6406 79.8988 63.5326 79.7686 63.4492C79.6383 63.3659 79.4795 63.3242 79.292 63.3242H77.1084ZM86.8701 67.5L86.4873 66.5547H83.71L83.3193 67.5H81.8076L84.0771 61.9805H86.1982L88.4795 67.5H86.8701ZM84.2529 65.2266H85.9404L85.0928 63.1719L84.2529 65.2266ZM93.4014 61.9805H94.8389V67.5H93.8701L90.4795 64.1094V67.5H89.1201V61.9805H90.1982L93.4014 65.2344V61.9805ZM99.1123 63.3398V67.5H97.7061V63.3398H95.4795L95.6396 61.9805H101.179L101.339 63.3398H99.1123Z" fill="#F9EDC2"></path><circle cx="107.532" cy="64.5" r="1.5" fill="#F9EDC2"></circle><path d="M119.362 61.9805H120.651V67.5H119.233V64.4102L117.378 66.8594H117.065L115.21 64.4102V67.5H113.851V61.9805H115.104L117.233 64.6523L119.362 61.9805ZM126.272 67.5L125.89 66.5547H123.112L122.722 67.5H121.21L123.479 61.9805H125.601L127.882 67.5H126.272ZM123.655 65.2266H125.343L124.495 63.1719L123.655 65.2266ZM134.194 63.9258C134.194 64.5456 133.888 65.0195 133.276 65.3477L134.077 67.5H132.612L131.956 65.6602H129.933V67.5H128.522V61.9805H131.987C132.328 61.9805 132.662 62.0391 132.987 62.1562C133.313 62.2734 133.595 62.4688 133.835 62.7422C134.075 63.013 134.194 63.3372 134.194 63.7148V63.9258ZM129.933 63.3242V64.3164H132.116C132.304 64.3164 132.463 64.2747 132.593 64.1914C132.723 64.1081 132.788 64 132.788 63.8672V63.7734C132.788 63.6406 132.723 63.5326 132.593 63.4492C132.463 63.3659 132.304 63.3242 132.116 63.3242H129.933ZM141.581 67.5H139.862L138.491 65.4922H136.558V67.5H135.147V61.9805H136.558V63.957H138.491L139.862 61.9805H141.565L139.718 64.707L141.581 67.5ZM145.499 63.3398V67.5H144.093V63.3398H141.866L142.026 61.9805H147.565L147.726 63.3398H145.499Z" fill="#F9EDC2"></path></g><defs><clipPath id="clip0_3020_613"><rect width="153" height="75" fill="white" transform="translate(0.5 0.5)"></rect></clipPath></defs></svg>